<svg xmlns="http://www.w3.org/2000/svg" xmlns:xlink="http://www.w3.org/1999/xlink" width="100" height="100" viewBox="0 0 100 100"><circle stroke="none" fill="#FF0000" r="48%" cx="50%" cy="50%"></circle><g transform="translate(50 50) scale(0.69 0.69) rotate(0) translate(-50 -50)" style="fill:#fbfbfb"><svg fill="#fbfbfb" xmlns="http://www.w3.org/2000/svg" viewBox="0 0 64 64" x="0px" y="0px"><title>Artboard 4</title><g data-name="Layer 3"><path d="M18.5,15a.5.5,0,1,1-.5.5A.5.5,0,0,1,18.5,15Zm-2,15h26A2.5,2.5,0,0,0,45,27.5V16H35.49a7.5,7.5,0,1,1-12,0h-3.6a1.49,1.49,0,0,1-2.82,0H14V27.5A2.5,2.5,0,0,0,16.5,30ZM24,9.5A1.5,1.5,0,0,0,22.5,8h-5A1.5,1.5,0,0,0,16,9.5V10h8ZM17.09,15H14V13.5A2.5,2.5,0,0,1,16.5,11h9.64L27,8.34A.49.49,0,0,1,27.5,8h11a.49.49,0,0,1,.47.34L39.86,11H42.5A2.5,2.5,0,0,1,45,13.5V15H34.58a7.45,7.45,0,0,0-10.16,0H19.91a1.49,1.49,0,0,0-2.82,0Zm11-3.2a.49.49,0,0,0,.4.2h9a.49.49,0,0,0,.4-.2.5.5,0,0,0,.08-.43l-.27-1a.5.5,0,1,0-1,.26l.1.37h-7.7l.1-.37a.5.5,0,1,0-1-.26l-.27,1A.5.5,0,0,0,28.1,11.8ZM29.5,16A4.5,4.5,0,1,1,25,20.5,4.51,4.51,0,0,1,29.5,16ZM29,19.5A1.5,1.5,0,1,0,27.5,21,1.5,1.5,0,0,0,29,19.5ZM31,22a1,1,0,1,0,1-1A1,1,0,0,0,31,22Zm-3.5-3a.5.5,0,1,0,.5.5A.5.5,0,0,0,27.5,19Zm2-5A6.5,6.5,0,1,1,23,20.5,6.51,6.51,0,0,1,29.5,14Zm0,1A5.5,5.5,0,1,0,35,20.5,5.51,5.51,0,0,0,29.5,15Zm24,15.52a1.48,1.48,0,0,0-1.15-.39L51,30.25v6.5l1.36.12h.14a1.52,1.52,0,0,0,1.5-1.5V31.62A1.48,1.48,0,0,0,53.51,30.52ZM36,35.38l14,1.27v-6.3L36,31.62ZM25,35.5a1.64,1.64,0,0,0,.09.5H35V31H25ZM32.53,37H26.48L14.17,53.61A1.49,1.49,0,0,0,14,55.18a1.5,1.5,0,0,0,2.54.21L28,40V54.5a1.5,1.5,0,0,0,3,0V40L42.42,55.39a1.5,1.5,0,1,0,2.41-1.78Z"></path></g></svg></g></svg>